<?xml version="1.0" encoding="utf-8"?>
<!-- Generator: Adobe Illustrator 27.9.0, SVG Export Plug-In . SVG Version: 6.00 Build 0)  -->
<svg version="1.1" id="Calque_1" xmlns="http://www.w3.org/2000/svg" xmlns:xlink="http://www.w3.org/1999/xlink" x="0px" y="0px"
	 viewBox="0 0 10 10" style="enable-background:new 0 0 10 10;" xml:space="preserve">
<style type="text/css">
	.st0{fill:#878787;}
</style>
<g>
	<path class="st0" d="M4.5,9.8C3.1,9.8,1.7,9.1,0.8,8C1.4,8.2,2,8.3,2.6,8.3c3.1,0,5.6-2.5,5.6-5.6c0-0.7-0.1-1.3-0.3-2
		c1.1,1,1.8,2.4,1.8,3.9C9.7,7.5,7.4,9.8,4.5,9.8z"/>
	<path class="st0" d="M8.3,1.6C9,2.4,9.4,3.5,9.4,4.7c0,2.7-2.2,4.9-4.9,4.9c-1.1,0-2.1-0.4-2.9-1.1c0.3,0.1,0.6,0.1,0.9,0.1
		c3.2,0,5.9-2.6,5.9-5.9C8.4,2.3,8.4,1.9,8.3,1.6 M7.2,0c0.5,0.8,0.7,1.7,0.7,2.7C7.9,5.6,5.6,8,2.6,8C1.7,8,0.8,7.8,0,7.3
		C0.9,8.8,2.6,10,4.5,10c2.9,0,5.4-2.3,5.4-5.4C9.9,2.7,8.9,0.9,7.2,0L7.2,0z"/>
</g>
</svg>
